<svg xmlns="http://www.w3.org/2000/svg" width="509.03" height="294" viewBox="0 0 509.03 294">
  <defs>
    <style>
      .cls-1 {
        fill: #ff4703;
      }

      .cls-2 {
        fill: #fff;
      }
    </style>
  </defs>
  <g id="Layer_2" data-name="Layer 2">
    <g id="Layer_1-2" data-name="Layer 1">
      <g>
        <g>
          <polygon class="cls-1" points="483.26 147 437.38 159.11 467.44 195.86 421.44 182.68 434.54 228.65 394.57 202.15 396.65 250.01 362.36 216.47 356.87 264.1 327.5 226.16 316.19 272.77 291.31 231.75 275.1 276.9 254.51 233.57 233.93 276.9 217.72 231.75 192.84 272.77 181.53 226.17 152.16 264.1 146.67 216.47 112.38 250.01 114.45 202.14 74.49 228.65 87.59 182.67 41.58 195.86 71.65 159.11 25.76 147 71.65 134.89 41.58 98.14 87.59 111.33 74.49 65.35 114.45 91.86 112.38 43.99 146.67 77.53 152.16 29.9 181.52 67.83 192.84 21.23 217.71 62.25 233.92 17.1 254.51 60.43 275.1 17.1 291.31 62.24 316.19 21.23 327.5 67.83 356.86 29.9 362.36 77.53 396.65 43.99 394.58 91.86 434.54 65.36 421.44 111.33 467.45 98.14 437.38 134.89 483.26 147"/>
          <path class="cls-2" d="M275.1,17.1l16.21,45.15,24.87-41,11.32,46.6L356.86,29.9l5.5,47.63L396.65,44l-2.07,47.87,40-26.51-13.1,46,46-13.19-30.07,36.75L483.26,147l-45.88,12.11,30.06,36.75-46-13.19,13.1,46-40-26.51L396.65,250l-34.29-33.54-5.49,47.63L327.5,226.17l-11.31,46.6-24.88-41L275.1,276.9l-20.59-43.33L233.93,276.9l-16.21-45.15-24.88,41-11.32-46.6L152.16,264.1l-5.49-47.63L112.38,250l2.07-47.87-40,26.51,13.1-46-46,13.19,30.07-36.75L25.76,147l45.89-12.11L41.58,98.14l46,13.19-13.1-46,40,26.51L112.38,44l34.29,33.54,5.49-47.63,29.36,37.93,11.32-46.6,24.87,41L233.92,17.1l20.59,43.33L275.1,17.1M276,0l-6.79,14.28L254.51,45.11,239.86,14.28,233.08,0l-5.34,14.88L216.19,47.05,198.46,17.82,190.2,4.21l-3.75,15.47L178.36,53l-21-27.12-9.88-12.77-1.85,16-4,34.3L117,39.29,105.09,27.66l.72,16.62,1.51,35L78.12,59.87,63.29,50l4.88,17.11L78,101.74,43.39,91.82,23.17,86,36.49,102.3l23.59,28.84-36,9.5L0,147l24.08,6.36,36,9.5L36.49,191.7,23.17,208l20.22-5.8L78,192.25l-9.86,34.59L63.28,244l14.84-9.84,29.2-19.36-1.51,35-.72,16.6L117,254.71l24.7-24.16,4,34.3,1.85,16,9.88-12.77,21-27.12,8.09,33.32,3.76,15.47,8.25-13.61L216.19,247l11.55,32.17L233.08,294l6.78-14.28,14.65-30.83,14.65,30.83L276,294l5.34-14.88L292.84,247l17.73,29.23,8.25,13.61,3.76-15.47L330.67,241l21,27.12,9.88,12.77,1.85-16,4-34.3,24.7,24.16,11.89,11.63-.72-16.62-1.52-35,29.2,19.37L445.74,244l-4.88-17.11L431,192.26l34.63,9.92,20.22,5.8L472.53,191.7l-23.59-28.84,36-9.5L509,147l-24.09-6.36-36-9.5,23.6-28.84L485.85,86l-20.21,5.8L431,101.75l9.85-34.59L445.74,50l-14.83,9.84L401.7,79.24l1.52-35,.72-16.6L392.05,39.29l-24.7,24.16-4-34.3-1.85-16-9.88,12.77L330.67,53l-8.1-33.32L318.82,4.21l-8.26,13.61L292.84,47.05,281.29,14.88,276,0Z"/>
        </g>
        <g>
          <path class="cls-2" d="M150.69,118.12c1.06-1.59,2.21-1.68,3.81-.44a22.2,22.2,0,0,1,4,4.35c1.16,1.77,1,2.66-.53,5-7.81,12-19.6,32.56-25,46.31-.63,1.68-1.42,1.59-2.67.7a18.83,18.83,0,0,1-3.63-3.28c-1.33-1.59-1.42-2.48-.62-4.79,1.06-3,2.39-6.38,4-9.93-4.26.8-10,2.22-14.9,3.63-2.58,5.24-4.79,10.29-6.48,14.82-.62,1.59-1.51,1.59-2.66.71a33.77,33.77,0,0,1-3.73-3.2c-1.5-1.5-1.59-2.66-.79-5,4.87-13.93,15.34-34.77,23.68-47.46,1.24-1.86,2.13-1.95,3.81-.53a29.23,29.23,0,0,1,4,4.17c1.24,1.68,1.06,2.66-.45,5-3.55,5.77-7.89,13.13-12,20.85,5.41-1,10.11-1.86,13.75-2.22A259,259,0,0,1,150.69,118.12Z"/>
          <path class="cls-2" d="M144.92,172.05c-1.33-1.5-1.42-2.75-.62-5.05,4.79-13.93,16.14-35.84,24.57-48.52,1.15-1.69,2.22-1.69,3.81-.36a29.1,29.1,0,0,1,4,4.17c1.15,1.69,1.06,2.66-.45,5.06-7.8,12.15-19.51,33.17-24.92,47.19-.54,1.51-1.42,1.59-2.66.62A25.23,25.23,0,0,1,144.92,172.05Z"/>
          <path class="cls-2" d="M171.18,174.09c-.89,2-2,1.42-3.46.36a10.16,10.16,0,0,1-2.84-3.19,5.16,5.16,0,0,1-.62-5.24,270.49,270.49,0,0,1,19.87-37.16,38.12,38.12,0,0,1-3.37-3.73c-1.16-1.33-1-2.31.62-3.1a45.07,45.07,0,0,1,19.33-4.44,21.77,21.77,0,0,1,16.24,7c4.88,5.5,2.39,9.05.09,12.15-4.26,5.68-15.26,14.1-26.79,18.27a87.1,87.1,0,0,0,12,14.28c1.33,1.16,1.16,2.13.09,2.75a14.83,14.83,0,0,1-4.7,1.78c-2.4.44-3.11.26-5.68-1.6-4.08-3-9.13-8.51-13-13.57C176.14,163.89,173.48,169.13,171.18,174.09ZM209.94,127c-.71-1.59-7.54-.71-12.42,1-3.81,5.59-8,12.15-12.06,19.16C196.72,142.87,211.54,130.54,209.94,127Z"/>
          <path class="cls-2" d="M237.79,143.67c1.87,0,3.11.35,4,1.51a19.5,19.5,0,0,1,2.31,3.55c.62,1.33.18,2-1.06,2.21a173.07,173.07,0,0,0-17.74,3.37c-1.87,3.64-3.64,7.1-5.24,10.38a71.31,71.31,0,0,1,13.31-1.33c1.95,0,3.46.36,4.52,1.51a15.46,15.46,0,0,1,2.75,3.9c.71,1.69,0,2.31-1.51,2.49-6.21.88-15.61,2.3-21.64,4.17-3.11,1-3.73.53-5.06-.54a20.3,20.3,0,0,1-3.19-2.84c-1.15-1.33-1.77-2.21-.8-4.7a295.69,295.69,0,0,1,19.52-40c-.45-1.24-.89-2.75-1.16-3.64-.44-1.68.18-2.48,1.78-2.93,7.8-2,18.8-2.83,25.9-2.83a6.66,6.66,0,0,1,5.23,1.86,16.09,16.09,0,0,1,2.75,4.52c.45,1.6-.26,2-1.95,2.22a208.14,208.14,0,0,0-21.38,3.19c-2.57,4.17-5.41,9.14-8.34,14.37C233.62,143.85,236.11,143.67,237.79,143.67Z"/>
          <path class="cls-2" d="M319.4,173.12c-.89,2-1.78,2-3.19.89-1.16-1-1.69-1.42-3.11-2.58s-1.33-2.66-.62-4.88c2.31-6.83,7.63-17.38,12.95-27.32-7.81,9.67-16.94,22-22.35,31-1.24,2-1.95,2.13-3.55,1.33a30.27,30.27,0,0,1-4.79-2.84c-1.6-1.15-2.31-2.66-2-5.32a174.05,174.05,0,0,1,3.64-21.29c-5.42,9.41-12.87,24.4-16.59,32.82a1.65,1.65,0,0,1-2.75.71,15.48,15.48,0,0,1-3.82-3.81,4.39,4.39,0,0,1-.17-3.73c4.79-13.21,17.29-36.72,24.83-47.45,1.25-1.78,2.22-2,4.17-1.07a30.58,30.58,0,0,1,6.74,4.79c1.42,1.51,1.07,3.28.54,5-2.4,8.07-4.44,16.59-6.21,24.84,6.65-10.74,19.78-26.88,28-34.95,1.86-1.87,2.66-1.69,4.43-.45a27.38,27.38,0,0,1,5.86,6.12c1.59,2.31,1.15,4-.53,6.83A459.72,459.72,0,0,0,319.4,173.12Z"/>
          <path class="cls-2" d="M360.73,143.67c1.87,0,3.11.35,4,1.51a20,20,0,0,1,2.3,3.55c.62,1.33.18,2-1.06,2.21a173.57,173.57,0,0,0-17.74,3.37c-1.87,3.64-3.64,7.1-5.24,10.38a71.31,71.31,0,0,1,13.31-1.33c1.95,0,3.46.36,4.52,1.51a15.46,15.46,0,0,1,2.75,3.9c.71,1.69,0,2.31-1.5,2.49-6.21.88-15.62,2.3-21.65,4.17-3.1,1-3.72.53-5.05-.54a20,20,0,0,1-3.2-2.84c-1.15-1.33-1.77-2.21-.8-4.7a295.69,295.69,0,0,1,19.52-40c-.44-1.24-.89-2.75-1.15-3.64-.45-1.68.17-2.48,1.77-2.93,7.81-2,18.8-2.83,25.9-2.83,2.4,0,3.9.53,5.23,1.86a16.09,16.09,0,0,1,2.75,4.52c.45,1.6-.26,2-1.95,2.22a208,208,0,0,0-21.37,3.19c-2.58,4.17-5.42,9.14-8.34,14.37C356.57,143.85,359.05,143.67,360.73,143.67Z"/>
          <path class="cls-2" d="M378.3,162.21c3.28-.27,5.32,3.19,4.88,7.45-.36,3.19-2.58,6-6.12,6a5.38,5.38,0,0,1-5.24-5.94C372.09,166.29,375,162.47,378.3,162.21Zm8.34-2.75c-.89,1.77-1.42,1.77-2.58.71a22.36,22.36,0,0,1-3-3.73c-1.07-1.68-1-2.92-.18-5.23,3.11-9.14,13.22-26.08,18.89-33.53,1.25-1.6,2.13-1.77,3.64-.53a20.66,20.66,0,0,1,3.9,4.25c1.16,1.78,1.07,2.75-.71,5.15A228.53,228.53,0,0,0,386.64,159.46Z"/>
        </g>
      </g>
    </g>
  </g>
</svg>
