<svg id="Layer_1" data-name="Layer 1" xmlns="http://www.w3.org/2000/svg" viewBox="0 0 509 294"><defs><style>.cls-1{fill:#ff4703;}.cls-2{fill:#fff;}</style></defs><g id="Layer_2" data-name="Layer 2"><g id="Layer_1-2" data-name="Layer 1-2"><polygon class="cls-1" points="483.26 147 437.38 159.11 467.44 195.86 421.44 182.68 434.54 228.65 394.57 202.15 396.65 250.01 362.36 216.47 356.87 264.1 327.5 226.16 316.19 272.77 291.31 231.75 275.1 276.9 254.51 233.57 233.93 276.9 217.72 231.75 192.84 272.77 181.53 226.17 152.16 264.1 146.67 216.47 112.38 250.01 114.45 202.14 74.49 228.65 87.59 182.67 41.58 195.86 71.65 159.11 25.76 147 71.65 134.89 41.58 98.14 87.59 111.33 74.49 65.35 114.45 91.86 112.38 43.99 146.67 77.53 152.16 29.9 181.52 67.83 192.84 21.23 217.71 62.25 233.92 17.1 254.51 60.43 275.1 17.1 291.31 62.24 316.19 21.23 327.5 67.83 356.86 29.9 362.36 77.53 396.65 43.99 394.58 91.86 434.54 65.36 421.44 111.33 467.45 98.14 437.38 134.89 483.26 147"/><path class="cls-2" d="M111.59,174.94c-3.15.92-3.92.15-4.84-.85a32.52,32.52,0,0,1-3.15-3.3,5.24,5.24,0,0,1-.93-4.69,354.74,354.74,0,0,1,12.45-39.26c.77-1.84,1.77-2.07,3.38-1.53a17.6,17.6,0,0,1,5.53,2.76c1.46,1.23,1.62,1.92.92,3.69-3.22,8.45-7.68,21.13-11.21,32.19a65.51,65.51,0,0,1,8.76-1.15c1.69-.15,2.61.15,3.22,1.69a16.15,16.15,0,0,1,1.15,4.53c.31,1.69.23,2.15-1.84,2.61C120.65,172.63,115.73,173.71,111.59,174.94Z"/><path class="cls-2" d="M137,130.3c-.31-1.54.07-1.84,1.3-2.15,5.3-1.54,15.14-2.69,22.21-2.92a2.67,2.67,0,0,1,3,2.15,17.73,17.73,0,0,1,.92,4.3c.08,1.69-.38,2.31-2.07,2.46-3.54.39-7.91.92-12.06,1.62-1.16,3.15-2.54,6.76-3.92,10.52a48.41,48.41,0,0,1,5.91-.54c1.69-.07,2.62.31,3.15,1.77a18.59,18.59,0,0,1,1.08,4.46c.23,1.69-.23,2.15-1.92,2.53-3.92.77-8.3,1.61-12.14,2.61-.84,2.39-1.69,4.77-2.38,7a70.8,70.8,0,0,1,9.22-1.23c1.69-.16,2.69.23,3.22,1.69a17.09,17.09,0,0,1,1.16,4.53c.23,1.69-.16,2.23-1.85,2.61-4.38,1-9.29,2.07-13.44,3.23-2.84.84-3.92.15-4.84-.85a25.71,25.71,0,0,1-3.07-3.3,5.79,5.79,0,0,1-.93-5c1.54-6.83,5.92-20.28,9.3-30.42A19.87,19.87,0,0,1,137,130.3Z"/><path class="cls-2" d="M188.49,134.53c-4.15,12-9,27.5-12.37,39.56-.46,1.62-1,1.92-2.61,1.46a16,16,0,0,1-4.77-2.23c-1.38-1-1.53-2.15-1.07-4.3,1.61-8.07,6-23.12,9.22-32.88-1.77.31-3.69.61-4.84.92-1.61.39-2.31.23-3.31-1.23a21.07,21.07,0,0,1-2.15-5.53c-.38-1.54.08-1.84,1.31-2.15a158.48,158.48,0,0,1,25.89-3c1.77,0,2.38.46,2.92,1.23a13.28,13.28,0,0,1,1.92,5.07c.23,1.62.08,2.08-1.77,2.23C194.41,133.91,191.56,134.22,188.49,134.53Z"/><path class="cls-2" d="M208.08,138.14a13.84,13.84,0,0,1-3.53.46c-1.46.07-2-.62-1.46-2.15,1.38-4.15,3.91-12.68,5.07-17.6.38-1.69,1.38-1.84,2.76-1.23a13.51,13.51,0,0,1,3.31,2.23c1.23,1.23,1.23,2.31.92,4a55.53,55.53,0,0,1-4.3,11.75A4.7,4.7,0,0,1,208.08,138.14Z"/><path class="cls-2" d="M215.61,162.57c4.53,4,8.91,5.3,10.83,3.61,2.23-1.84-5.76-6.68-9.83-11.37a12.75,12.75,0,0,1-1.69-14,33.7,33.7,0,0,1,11.52-13.68,9.21,9.21,0,0,1,7.92-1.08,18.24,18.24,0,0,1,6.68,4.38c2.15,2.39,1.92,5,1.69,7.07a52.16,52.16,0,0,1-4.07,12.68c-.77,1.46-1.54,1.77-2.92,1.15-3.92-1.69-5.69-4.07-5-7.14.62-2.77,2.92-8.61,2-9.07-1.61-.92-11.52,9.22-7.37,14.83,4.53,6,14.44,9.91,10.83,16.9-1.69,3.3-5.38,8.68-13.14,8.84-5.07.15-10-2.39-14.29-8.53-2.23-3.15-1.92-4.3-.46-5.07C210.69,160.88,214,161.19,215.61,162.57Z"/><path class="cls-2" d="M288,134.53c-4.15,12-9,27.5-12.37,39.56-.46,1.62-1,1.92-2.61,1.46a15.81,15.81,0,0,1-4.76-2.23c-1.39-1-1.54-2.15-1.08-4.3,1.61-8.07,6-23.12,9.22-32.88-1.77.31-3.69.61-4.84.92-1.61.39-2.31.23-3.3-1.23a20.77,20.77,0,0,1-2.16-5.53c-.38-1.54.08-1.84,1.31-2.15a158.48,158.48,0,0,1,25.89-3c1.77,0,2.38.46,2.92,1.23a13.28,13.28,0,0,1,1.92,5.07c.23,1.62.08,2.08-1.77,2.23C293.9,133.91,291.05,134.22,288,134.53Z"/><path class="cls-2" d="M294.13,165.18c-1.69,3.15-3.23,6.15-4.54,8.76-.84,1.61-1.46,1.77-2.92,1.07a11.14,11.14,0,0,1-3.68-2.53c-1.08-1.23-1.08-2.31-.16-4.46a418.54,418.54,0,0,1,21.67-40.25,5.17,5.17,0,0,1,5.3-2.85,32.86,32.86,0,0,1,9.76,2.15c1.84.7,2.07,1.92,1.76,3.85-1.38,9.68-3.15,28.19-4.14,42.4-.08,1.77-.54,2.23-2.23,2.23a12.31,12.31,0,0,1-4.77-.69c-1.53-.61-2-1.54-2-3.84,0-2.46.15-5.38.3-8.68C303.58,163.18,298.05,164.11,294.13,165.18ZM309,152.89c.46-6.07,1.08-12.37,1.77-17.83-3,5.07-6.92,12-10.76,19C303,153.58,306.11,153.12,309,152.89Z"/><path class="cls-2" d="M329.08,174.94c-3.15.92-3.92.15-4.84-.85a33.67,33.67,0,0,1-3.15-3.3,5.27,5.27,0,0,1-.92-4.69,354.74,354.74,0,0,1,12.45-39.26c.76-1.84,1.76-2.07,3.38-1.53a17.6,17.6,0,0,1,5.53,2.76c1.46,1.23,1.61,1.92.92,3.69-3.23,8.45-7.68,21.13-11.22,32.19A65.73,65.73,0,0,1,340,162.8c1.69-.15,2.61.15,3.23,1.69a16.5,16.5,0,0,1,1.15,4.53c.31,1.69.23,2.15-1.84,2.61C338.15,172.63,333.23,173.71,329.08,174.94Z"/><path class="cls-2" d="M375.49,170.1c.76,1.38.46,2.23-.93,3.07a17,17,0,0,1-3.45,1.31,4.3,4.3,0,0,1-5.23-2,104.76,104.76,0,0,1-6.6-12.45c-1.54,5.23-3,10.07-4.08,13.83-.46,1.69-1,2-2.61,1.54a15.48,15.48,0,0,1-4.84-2.23c-1.3-1-1.54-2-1.07-4.23,1.84-8.75,8.52-32.42,12-41.94.69-1.85,1.69-2.15,3.3-1.62a20.79,20.79,0,0,1,5.46,2.92c1.54,1.23,1.77,1.85,1.07,3.61-1.3,3.46-2.92,8.38-4.68,13.83,6.22-6.6,14.29-15.36,17.82-19.67,1.15-1.38,2-1.38,3.15-.15a11.31,11.31,0,0,1,2.54,4.53c.38,1.39.15,2.85-1.08,4.84-3.3,5.31-11.29,13.91-17.67,20.29C370.72,160.72,373.72,167,375.49,170.1Z"/><path class="cls-2" d="M389.39,165c3.69,1.3,3.69,4.76,2.92,7-.54,1.69-2.77,4.61-5.91,4.68s-5.54-2.68-4.84-6.53C382.17,166.64,385.47,163.64,389.39,165Zm16.75-35.42c-4.15,10.37-8.76,22.51-11.83,31.88-.54,1.69-1.15,1.92-2.69,1.54a15.54,15.54,0,0,1-4.46-1.92c-1.38-.92-1.69-1.92-1.07-4.15,2.38-9,7.45-24,10.45-32.5.69-1.92,1.53-2.3,3.38-1.69a17.62,17.62,0,0,1,5.3,2.77C406.68,126.77,406.83,127.84,406.14,129.61Z"/><path class="cls-2" d="M275.1,17.1l16.21,45.15,24.87-41,11.32,46.6L356.86,29.9l5.5,47.63L396.65,44l-2.07,47.87,40-26.51-13.1,46,46-13.19-30.07,36.75L483.26,147l-45.88,12.11,30.06,36.75-46-13.19,13.1,46-40-26.51L396.65,250l-34.29-33.54-5.49,47.63L327.5,226.17l-11.31,46.6-24.88-41L275.1,276.9l-20.59-43.33L233.93,276.9l-16.21-45.15-24.88,41-11.32-46.6-29.36,38-5.49-47.63L112.38,250l2.07-47.87-40,26.51,13.1-46-46,13.19,30.07-36.75L25.76,147l45.89-12.11L41.58,98.14l46,13.19-13.1-46,40,26.51L112.38,44l34.29,33.54,5.49-47.63,29.36,37.93,11.32-46.6,24.87,41L233.92,17.1l20.59,43.33L275.1,17.1M276,0l-6.79,14.28-14.7,30.83L239.86,14.28,233.08,0l-5.34,14.88L216.19,47.05,198.46,17.82,190.2,4.21l-3.75,15.47L178.36,53l-21-27.12-9.88-12.77-1.85,16-4,34.3L117,39.29,105.09,27.66l.72,16.62,1.51,35L78.12,59.87,63.29,50l4.88,17.11L78,101.74,43.39,91.82,23.17,86l13.32,16.3,23.59,28.84-36,9.5L0,147l24.08,6.36,36,9.5L36.49,191.7,23.17,208l20.22-5.8L78,192.25l-9.86,34.59L63.28,244l14.84-9.84,29.2-19.36-1.51,35-.72,16.6L117,254.71l24.7-24.16,4,34.3,1.85,16,9.88-12.77,21-27.12,8.09,33.32,3.76,15.47,8.25-13.61L216.19,247l11.55,32.17L233.08,294l6.78-14.28,14.65-30.83,14.65,30.83L276,294l5.34-14.88L292.84,247l17.73,29.23,8.25,13.61,3.76-15.47L330.67,241l21,27.12,9.88,12.77,1.85-16,4-34.3,24.7,24.16L404,266.38l-.72-16.62-1.52-35L431,234.13,445.74,244l-4.88-17.11L431,192.26l34.63,9.92,20.22,5.8L472.53,191.7l-23.59-28.84,36-9.5L509,147l-24.09-6.36-36-9.5,23.6-28.84L485.85,86l-20.21,5.8-34.64,10,9.85-34.59L445.74,50l-14.83,9.84L401.7,79.24l1.52-35,.72-16.6L392.05,39.29l-24.7,24.16-4-34.3-1.85-16-9.88,12.77L330.67,53l-8.1-33.32L318.82,4.21l-8.26,13.61L292.84,47.05,281.29,14.88Z"/></g></g></svg>